<svg width="30" height="30" viewBox="0 0 30 30" fill="none" xmlns="http://www.w3.org/2000/svg">
<g filter="url(#filter0_i)">
<path d="M25.6065 4.39334C23.5087 2.29557 20.836 0.866977 17.9263 0.288214C15.0166 -0.290549 12.0006 0.00651153 9.25971 1.14183C6.51883 2.27715 4.17616 4.19974 2.52794 6.66647C0.87973 9.13321 0 12.0333 0 15C0 17.9667 0.87973 20.8668 2.52794 23.3335C4.17616 25.8003 6.51883 27.7229 9.25971 28.8582C12.0006 29.9935 15.0166 30.2906 17.9263 29.7118C20.836 29.133 23.5087 27.7044 25.6065 25.6067C26.9994 24.2138 28.1043 22.5602 28.8582 20.7403C29.612 18.9204 30 16.9698 30 15C30 13.0302 29.612 11.0796 28.8582 9.25971C28.1043 7.43982 26.9994 5.78622 25.6065 4.39334V4.39334ZM17.1199 20.8933L16.1765 21.8367C15.1008 22.8332 13.6805 23.3739 12.2144 23.3451C10.7483 23.3163 9.35038 22.7203 8.31454 21.6823C7.2787 20.6443 6.68559 19.2452 6.65985 17.779C6.63412 16.3128 7.17777 14.8937 8.17654 13.82L9.11987 12.88C9.27362 12.7208 9.45752 12.5939 9.66086 12.5065C9.8642 12.4192 10.0829 12.3732 10.3042 12.3713C10.5255 12.3693 10.745 12.4115 10.9498 12.4953C11.1546 12.5791 11.3407 12.7029 11.4972 12.8593C11.6537 13.0158 11.7774 13.2019 11.8612 13.4067C11.945 13.6116 11.9872 13.831 11.9853 14.0523C11.9834 14.2736 11.9374 14.4923 11.85 14.6957C11.7627 14.899 11.6357 15.0829 11.4765 15.2367L10.5365 16.1767C10.309 16.3907 10.1268 16.6481 10.0006 16.9339C9.87446 17.2196 9.80695 17.5277 9.80209 17.84C9.79722 18.1523 9.85511 18.4624 9.97231 18.7519C10.0895 19.0414 10.2636 19.3045 10.4844 19.5254C10.7051 19.7464 10.968 19.9208 11.2574 20.0383C11.5468 20.1558 11.8568 20.214 12.1691 20.2094C12.4814 20.2049 12.7896 20.1377 13.0755 20.0118C13.3613 19.8859 13.619 19.704 13.8332 19.4767L14.7765 18.5333C15.0895 18.2208 15.5138 18.0454 15.956 18.0457C16.3983 18.0461 16.8224 18.222 17.1349 18.535C17.4474 18.848 17.6228 19.2722 17.6225 19.7145C17.6222 20.1568 17.4462 20.5808 17.1332 20.8933H17.1199ZM15.7065 11.9367C15.8603 11.7775 16.0442 11.6505 16.2475 11.5632C16.4509 11.4758 16.6696 11.4298 16.8909 11.4279C17.1122 11.426 17.3316 11.4682 17.5365 11.552C17.7413 11.6358 17.9274 11.7595 18.0839 11.916C18.2404 12.0725 18.3641 12.2586 18.4479 12.4634C18.5317 12.6682 18.5739 12.8877 18.572 13.109C18.57 13.3303 18.5241 13.549 18.4367 13.7523C18.3494 13.9557 18.2224 14.1396 18.0632 14.2933L14.2932 18.0633C14.1395 18.2225 13.9556 18.3495 13.7522 18.4368C13.5489 18.5242 13.3302 18.5702 13.1089 18.5721C12.8876 18.574 12.6681 18.5318 12.4633 18.448C12.2585 18.3642 12.0724 18.2405 11.9159 18.084C11.7594 17.9275 11.6356 17.7414 11.5518 17.5366C11.468 17.3318 11.4259 17.1123 11.4278 16.891C11.4297 16.6697 11.4757 16.451 11.563 16.2477C11.6504 16.0443 11.7774 15.8604 11.9365 15.7067L15.7065 11.9367ZM21.8332 16.1767L20.8932 17.12C20.5807 17.433 20.1567 17.609 19.7144 17.6093C19.2721 17.6096 18.8478 17.4342 18.5349 17.1217C18.2219 16.8092 18.0459 16.3851 18.0456 15.9429C18.0453 15.5006 18.2207 15.0763 18.5332 14.7633L19.4765 13.82C19.7041 13.606 19.8863 13.3485 20.0125 13.0628C20.1386 12.7771 20.2061 12.469 20.211 12.1567C20.2158 11.8444 20.158 11.5343 20.0408 11.2448C19.9236 10.9552 19.7494 10.6922 19.5287 10.4712C19.3079 10.2503 19.0451 10.0759 18.7557 9.95838C18.4663 9.84089 18.1563 9.78269 17.844 9.78724C17.5317 9.79179 17.2235 9.85899 16.9376 9.98486C16.6518 10.1107 16.3941 10.2927 16.1799 10.52L15.2365 11.4633C15.0828 11.6225 14.8989 11.7495 14.6955 11.8368C14.4922 11.9242 14.2735 11.9702 14.0522 11.9721C13.8309 11.974 13.6114 11.9318 13.4066 11.848C13.2018 11.7642 13.0157 11.6405 12.8592 11.484C12.7027 11.3275 12.579 11.1414 12.4952 10.9366C12.4114 10.7318 12.3692 10.5123 12.3711 10.291C12.373 10.0697 12.419 9.85101 12.5064 9.64767C12.5937 9.44433 12.7207 9.26042 12.8799 9.10667L13.8199 8.16334C14.3329 7.58611 14.9584 7.11983 15.6581 6.79312C16.3578 6.4664 17.1169 6.28615 17.8888 6.26342C18.6607 6.2407 19.4291 6.37599 20.1468 6.66098C20.8646 6.94597 21.5165 7.37465 22.0625 7.9207C22.6086 8.46675 23.0372 9.11865 23.3222 9.83636C23.6072 10.5541 23.7425 11.3225 23.7198 12.0944C23.6971 12.8663 23.5168 13.6254 23.1901 14.3251C22.8634 15.0248 22.3971 15.6504 21.8199 16.1633L21.8332 16.1767Z" fill="#F6CE68"/>
</g>
<defs>
<filter id="filter0_i" x="0" y="0" width="30" height="34" filterUnits="userSpaceOnUse" color-interpolation-filters="sRGB">
<feFlood flood-opacity="0" result="BackgroundImageFix"/>
<feBlend mode="normal" in="SourceGraphic" in2="BackgroundImageFix" result="shape"/>
<feColorMatrix in="SourceAlpha" type="matrix" values="0 0 0 0 0 0 0 0 0 0 0 0 0 0 0 0 0 0 127 0" result="hardAlpha"/>
<feOffset dy="4"/>
<feGaussianBlur stdDeviation="2"/>
<feComposite in2="hardAlpha" operator="arithmetic" k2="-1" k3="1"/>
<feColorMatrix type="matrix" values="0 0 0 0 0 0 0 0 0 0 0 0 0 0 0 0 0 0 0.25 0"/>
<feBlend mode="normal" in2="shape" result="effect1_innerShadow"/>
</filter>
</defs>
</svg>
