<svg width="33" height="33" viewBox="0 0 33 33" fill="none" xmlns="http://www.w3.org/2000/svg">
<g filter="url(#filter0_d)">
<path d="M25.3388 3.66112C23.5906 1.91298 21.3633 0.722481 18.9386 0.240178C16.5138 -0.242124 14.0005 0.00542627 11.7164 0.951526C9.43235 1.89763 7.48013 3.49978 6.10662 5.55539C4.73311 7.611 4 10.0277 4 12.5C4 14.9723 4.73311 17.389 6.10662 19.4446C7.48013 21.5002 9.43235 23.1024 11.7164 24.0485C14.0005 24.9946 16.5138 25.2421 18.9386 24.7598C21.3633 24.2775 23.5906 23.087 25.3388 21.3389C26.4995 20.1782 27.4203 18.8002 28.0485 17.2836C28.6767 15.767 29 14.1415 29 12.5C29 10.8585 28.6767 9.23301 28.0485 7.71643C27.4203 6.19985 26.4995 4.82185 25.3388 3.66112ZM18.2666 17.4111L17.4804 18.1972C16.584 19.0277 15.4005 19.4783 14.1787 19.4543C12.9569 19.4303 11.792 18.9336 10.9288 18.0686C10.0656 17.2036 9.57132 16.0377 9.54988 14.8158C9.52843 13.594 9.98147 12.4114 10.8138 11.5167L11.5999 10.7333C11.728 10.6007 11.8813 10.4949 12.0507 10.4221C12.2202 10.3493 12.4024 10.311 12.5868 10.3094C12.7713 10.3078 12.9541 10.3429 13.1248 10.4128C13.2955 10.4826 13.4506 10.5857 13.581 10.7161C13.7114 10.8465 13.8145 11.0016 13.8844 11.1723C13.9542 11.343 13.9893 11.5259 13.9877 11.7103C13.9861 11.8947 13.9478 12.0769 13.875 12.2464C13.8022 12.4158 13.6964 12.5691 13.5638 12.6972L12.7804 13.4806C12.5909 13.6589 12.439 13.8735 12.3339 14.1116C12.2287 14.3497 12.1725 14.6064 12.1684 14.8667C12.1644 15.1269 12.2126 15.3853 12.3103 15.6266C12.4079 15.8679 12.553 16.0871 12.737 16.2712C12.9209 16.4553 13.14 16.6007 13.3812 16.6986C13.6223 16.7965 13.8807 16.845 14.1409 16.8412C14.4012 16.8374 14.658 16.7814 14.8962 16.6765C15.1344 16.5716 15.3492 16.42 15.5277 16.2306L16.3138 15.4444C16.5746 15.184 16.9281 15.0379 17.2967 15.0381C17.6653 15.0384 18.0186 15.185 18.2791 15.4458C18.5395 15.7066 18.6856 16.0602 18.6854 16.4288C18.6851 16.7973 18.5385 17.1507 18.2777 17.4111H18.2666ZM17.0888 9.94723C17.2169 9.81457 17.3702 9.70877 17.5396 9.63597C17.7091 9.56318 17.8913 9.52487 18.0757 9.52327C18.2601 9.52167 18.443 9.55681 18.6137 9.62664C18.7844 9.69648 18.9395 9.7996 19.0699 9.93001C19.2003 10.0604 19.3034 10.2155 19.3733 10.3862C19.4431 10.5569 19.4782 10.7398 19.4766 10.9242C19.475 11.1086 19.4367 11.2908 19.3639 11.4603C19.2911 11.6297 19.1853 11.783 19.0527 11.9111L15.911 15.0528C15.7829 15.1854 15.6296 15.2912 15.4602 15.364C15.2907 15.4368 15.1085 15.4751 14.9241 15.4767C14.7396 15.4783 14.5568 15.4432 14.3861 15.3734C14.2154 15.3035 14.0603 15.2004 13.9299 15.07C13.7995 14.9396 13.6964 14.7845 13.6265 14.6138C13.5567 14.4431 13.5216 14.2603 13.5232 14.0758C13.5248 13.8914 13.5631 13.7092 13.6359 13.5397C13.7087 13.3703 13.8145 13.217 13.9471 13.0889L17.0888 9.94723ZM22.1943 13.4806L21.411 14.2667C21.1506 14.5275 20.7972 14.6741 20.4287 14.6744C20.0601 14.6746 19.7065 14.5285 19.4457 14.2681C19.1849 14.0076 19.0383 13.6543 19.038 13.2857C19.0377 12.9171 19.1839 12.5636 19.4443 12.3028L20.2304 11.5167C20.42 11.3384 20.5719 11.1238 20.677 10.8857C20.7822 10.6476 20.8384 10.3908 20.8425 10.1305C20.8465 9.8703 20.7983 9.61189 20.7006 9.37063C20.603 9.12937 20.4579 8.91017 20.2739 8.72604C20.09 8.5419 19.8709 8.39656 19.6297 8.29865C19.3886 8.20074 19.1302 8.15224 18.87 8.15603C18.6097 8.15982 18.3529 8.21582 18.1147 8.32071C17.8765 8.42561 17.6617 8.57726 17.4832 8.76667L16.6971 9.55278C16.569 9.68544 16.4157 9.79124 16.2463 9.86403C16.0768 9.93682 15.8946 9.97514 15.7102 9.97674C15.5258 9.97834 15.3429 9.9432 15.1722 9.87337C15.0015 9.80353 14.8464 9.70041 14.716 9.57C14.5856 9.43959 14.4825 9.28452 14.4126 9.11383C14.3428 8.94314 14.3077 8.76025 14.3093 8.57584C14.3109 8.39142 14.3492 8.20917 14.422 8.03972C14.4948 7.87027 14.6006 7.71701 14.7332 7.58889L15.5166 6.80278C15.944 6.32176 16.4653 5.93319 17.0484 5.66093C17.6315 5.38867 18.2641 5.23846 18.9074 5.21952C19.5506 5.20059 20.1909 5.31332 20.789 5.55082C21.3871 5.78831 21.9304 6.14554 22.3854 6.60058C22.8405 7.05562 23.1977 7.59887 23.4352 8.19697C23.6727 8.79507 23.7854 9.4354 23.7665 10.0786C23.7476 10.7219 23.5973 11.3545 23.3251 11.9376C23.0528 12.5207 22.6642 13.042 22.1832 13.4694L22.1943 13.4806Z" fill="white"/>
</g>
<defs>
<filter id="filter0_d" x="0" y="0" width="33" height="33" filterUnits="userSpaceOnUse" color-interpolation-filters="sRGB">
<feFlood flood-opacity="0" result="BackgroundImageFix"/>
<feColorMatrix in="SourceAlpha" type="matrix" values="0 0 0 0 0 0 0 0 0 0 0 0 0 0 0 0 0 0 127 0"/>
<feOffset dy="4"/>
<feGaussianBlur stdDeviation="2"/>
<feColorMatrix type="matrix" values="0 0 0 0 0 0 0 0 0 0 0 0 0 0 0 0 0 0 0.25 0"/>
<feBlend mode="normal" in2="BackgroundImageFix" result="effect1_dropShadow"/>
<feBlend mode="normal" in="SourceGraphic" in2="effect1_dropShadow" result="shape"/>
</filter>
</defs>
</svg>
