<svg width="25" height="25" viewBox="0 0 25 25" fill="none" xmlns="http://www.w3.org/2000/svg">
<g filter="url(#filter0_i)">
<path d="M21.3388 3.66112C19.5906 1.91298 17.3633 0.722481 14.9386 0.240178C12.5138 -0.242124 10.0005 0.00542627 7.71642 0.951526C5.43235 1.89763 3.48013 3.49978 2.10662 5.55539C0.733108 7.611 0 10.0277 0 12.5C0 14.9723 0.733108 17.389 2.10662 19.4446C3.48013 21.5002 5.43235 23.1024 7.71642 24.0485C10.0005 24.9946 12.5138 25.2421 14.9386 24.7598C17.3633 24.2775 19.5906 23.087 21.3388 21.3389C22.4995 20.1782 23.4203 18.8002 24.0485 17.2836C24.6767 15.767 25 14.1415 25 12.5C25 10.8585 24.6767 9.23301 24.0485 7.71643C23.4203 6.19985 22.4995 4.82185 21.3388 3.66112ZM14.2666 17.4111L13.4804 18.1972C12.584 19.0277 11.4005 19.4783 10.1787 19.4543C8.95689 19.4303 7.79198 18.9336 6.92878 18.0686C6.06559 17.2036 5.57132 16.0377 5.54988 14.8158C5.52843 13.594 5.98147 12.4114 6.81378 11.5167L7.59989 10.7333C7.72801 10.6007 7.88127 10.4949 8.05072 10.4221C8.22017 10.3493 8.40242 10.311 8.58683 10.3094C8.77125 10.3078 8.95414 10.3429 9.12483 10.4128C9.29552 10.4826 9.45059 10.5857 9.581 10.7161C9.7114 10.8465 9.81453 11.0016 9.88437 11.1723C9.9542 11.343 9.98934 11.5259 9.98774 11.7103C9.98614 11.8947 9.94782 12.0769 9.87503 12.2464C9.80224 12.4158 9.69643 12.5691 9.56378 12.6972L8.78045 13.4806C8.59085 13.6589 8.43899 13.8735 8.33385 14.1116C8.22872 14.3497 8.17246 14.6064 8.16841 14.8667C8.16435 15.1269 8.21259 15.3853 8.31026 15.6266C8.40793 15.8679 8.55304 16.0871 8.73699 16.2712C8.92094 16.4553 9.13999 16.6007 9.38115 16.6986C9.62231 16.7965 9.88068 16.845 10.1409 16.8412C10.4012 16.8374 10.658 16.7814 10.8962 16.6765C11.1344 16.5716 11.3492 16.42 11.5277 16.2306L12.3138 15.4444C12.5746 15.184 12.9281 15.0379 13.2967 15.0381C13.6653 15.0384 14.0186 15.185 14.2791 15.4458C14.5395 15.7066 14.6856 16.0602 14.6854 16.4288C14.6851 16.7973 14.5385 17.1507 14.2777 17.4111H14.2666ZM13.0888 9.94723C13.2169 9.81457 13.3702 9.70877 13.5396 9.63597C13.7091 9.56318 13.8913 9.52487 14.0757 9.52327C14.2601 9.52167 14.443 9.55681 14.6137 9.62664C14.7844 9.69648 14.9395 9.7996 15.0699 9.93001C15.2003 10.0604 15.3034 10.2155 15.3733 10.3862C15.4431 10.5569 15.4782 10.7398 15.4766 10.9242C15.475 11.1086 15.4367 11.2908 15.3639 11.4603C15.2911 11.6297 15.1853 11.783 15.0527 11.9111L11.911 15.0528C11.7829 15.1854 11.6296 15.2912 11.4602 15.364C11.2907 15.4368 11.1085 15.4751 10.9241 15.4767C10.7396 15.4783 10.5568 15.4432 10.3861 15.3734C10.2154 15.3035 10.0603 15.2004 9.9299 15.07C9.79949 14.9396 9.69636 14.7845 9.62653 14.6138C9.55669 14.4431 9.52155 14.2603 9.52316 14.0758C9.52476 13.8914 9.56307 13.7092 9.63586 13.5397C9.70865 13.3703 9.81446 13.217 9.94711 13.0889L13.0888 9.94723ZM18.1943 13.4806L17.411 14.2667C17.1506 14.5275 16.7972 14.6741 16.4287 14.6744C16.0601 14.6746 15.7065 14.5285 15.4457 14.2681C15.1849 14.0076 15.0383 13.6543 15.038 13.2857C15.0377 12.9171 15.1839 12.5636 15.4443 12.3028L16.2304 11.5167C16.42 11.3384 16.5719 11.1238 16.677 10.8857C16.7822 10.6476 16.8384 10.3908 16.8425 10.1305C16.8465 9.8703 16.7983 9.61189 16.7006 9.37063C16.603 9.12937 16.4579 8.91017 16.2739 8.72604C16.09 8.5419 15.8709 8.39656 15.6297 8.29865C15.3886 8.20074 15.1302 8.15224 14.87 8.15603C14.6097 8.15982 14.3529 8.21582 14.1147 8.32071C13.8765 8.42561 13.6617 8.57726 13.4832 8.76667L12.6971 9.55278C12.569 9.68544 12.4157 9.79124 12.2463 9.86403C12.0768 9.93682 11.8946 9.97514 11.7102 9.97674C11.5258 9.97834 11.3429 9.9432 11.1722 9.87337C11.0015 9.80353 10.8464 9.70041 10.716 9.57C10.5856 9.43959 10.4825 9.28452 10.4126 9.11383C10.3428 8.94314 10.3077 8.76025 10.3093 8.57584C10.3109 8.39142 10.3492 8.20917 10.422 8.03972C10.4948 7.87027 10.6006 7.71701 10.7332 7.58889L11.5166 6.80278C11.944 6.32176 12.4653 5.93319 13.0484 5.66093C13.6315 5.38867 14.2641 5.23846 14.9074 5.21952C15.5506 5.20059 16.1909 5.31332 16.789 5.55082C17.3871 5.78831 17.9304 6.14554 18.3854 6.60058C18.8405 7.05562 19.1977 7.59887 19.4352 8.19697C19.6727 8.79507 19.7854 9.4354 19.7665 10.0786C19.7476 10.7219 19.5973 11.3545 19.3251 11.9376C19.0528 12.5207 18.6642 13.042 18.1832 13.4694L18.1943 13.4806Z" fill="#F6CE68"/>
</g>
<defs>
<filter id="filter0_i" x="0" y="0" width="25" height="29" filterUnits="userSpaceOnUse" color-interpolation-filters="sRGB">
<feFlood flood-opacity="0" result="BackgroundImageFix"/>
<feBlend mode="normal" in="SourceGraphic" in2="BackgroundImageFix" result="shape"/>
<feColorMatrix in="SourceAlpha" type="matrix" values="0 0 0 0 0 0 0 0 0 0 0 0 0 0 0 0 0 0 127 0" result="hardAlpha"/>
<feOffset dy="4"/>
<feGaussianBlur stdDeviation="2"/>
<feComposite in2="hardAlpha" operator="arithmetic" k2="-1" k3="1"/>
<feColorMatrix type="matrix" values="0 0 0 0 0 0 0 0 0 0 0 0 0 0 0 0 0 0 0.25 0"/>
<feBlend mode="normal" in2="shape" result="effect1_innerShadow"/>
</filter>
</defs>
</svg>
