<svg width="30" height="30" viewBox="0 0 30 30" fill="none" xmlns="http://www.w3.org/2000/svg">
<g filter="url(#filter0_i)">
<path d="M15 0C6.71458 0 0 6.71458 0 15C0 23.2854 6.71458 30 15 30C23.2854 30 30 23.2854 30 15C30 6.71458 23.2854 0 15 0ZM14.9692 23.039C14.076 23.039 13.3676 22.3306 13.3676 21.4374C13.3676 21.2834 13.3984 21.1602 13.4292 21.037H16.54C16.5708 21.1602 16.6016 21.3142 16.6016 21.4374C16.5708 22.3306 15.8624 23.039 14.9692 23.039ZM21.499 20.3285H8.43943V19.2505C8.43943 19.1273 8.50103 19.0041 8.59343 18.8809C8.59343 18.8809 9.97947 17.3717 9.97947 13.3984C9.97947 10.3183 12.0431 9.02464 13.768 8.62423V7.73101C13.768 7.08419 14.2916 6.56058 14.9384 6.56058C15.5852 6.56058 16.1088 7.08419 16.1088 7.73101V8.62423C17.8337 9.02464 19.9281 10.3183 19.9281 13.3984C19.9281 17.3717 21.3142 18.8501 21.345 18.8809C21.4374 18.9733 21.499 19.0965 21.499 19.2505V20.3285Z" fill="#F9BE79"/>
</g>
<defs>
<filter id="filter0_i" x="0" y="0" width="30" height="34" filterUnits="userSpaceOnUse" color-interpolation-filters="sRGB">
<feFlood flood-opacity="0" result="BackgroundImageFix"/>
<feBlend mode="normal" in="SourceGraphic" in2="BackgroundImageFix" result="shape"/>
<feColorMatrix in="SourceAlpha" type="matrix" values="0 0 0 0 0 0 0 0 0 0 0 0 0 0 0 0 0 0 127 0" result="hardAlpha"/>
<feOffset dy="4"/>
<feGaussianBlur stdDeviation="2"/>
<feComposite in2="hardAlpha" operator="arithmetic" k2="-1" k3="1"/>
<feColorMatrix type="matrix" values="0 0 0 0 0 0 0 0 0 0 0 0 0 0 0 0 0 0 0.25 0"/>
<feBlend mode="normal" in2="shape" result="effect1_innerShadow"/>
</filter>
</defs>
</svg>
