<svg width="38" height="38" viewBox="0 0 38 38" fill="none" xmlns="http://www.w3.org/2000/svg">
<g filter="url(#filter0_d)">
<path d="M19 0C10.7146 0 4 6.71458 4 15C4 23.2854 10.7146 30 19 30C27.2854 30 34 23.2854 34 15C34 6.71458 27.2854 0 19 0ZM18.9692 23.039C18.076 23.039 17.3676 22.3306 17.3676 21.4374C17.3676 21.2834 17.3984 21.1602 17.4292 21.037H20.54C20.5708 21.1602 20.6016 21.3142 20.6016 21.4374C20.5708 22.3306 19.8624 23.039 18.9692 23.039ZM25.499 20.3285H12.4394V19.2505C12.4394 19.1273 12.501 19.0041 12.5934 18.8809C12.5934 18.8809 13.9795 17.3717 13.9795 13.3984C13.9795 10.3183 16.0431 9.02464 17.768 8.62423V7.73101C17.768 7.08419 18.2916 6.56058 18.9384 6.56058C19.5852 6.56058 20.1088 7.08419 20.1088 7.73101V8.62423C21.8337 9.02464 23.9281 10.3183 23.9281 13.3984C23.9281 17.3717 25.3142 18.8501 25.345 18.8809C25.4374 18.9733 25.499 19.0965 25.499 19.2505V20.3285Z" fill="#F4F4F4"/>
</g>
<defs>
<filter id="filter0_d" x="0" y="0" width="38" height="38" filterUnits="userSpaceOnUse" color-interpolation-filters="sRGB">
<feFlood flood-opacity="0" result="BackgroundImageFix"/>
<feColorMatrix in="SourceAlpha" type="matrix" values="0 0 0 0 0 0 0 0 0 0 0 0 0 0 0 0 0 0 127 0"/>
<feOffset dy="4"/>
<feGaussianBlur stdDeviation="2"/>
<feColorMatrix type="matrix" values="0 0 0 0 0 0 0 0 0 0 0 0 0 0 0 0 0 0 0.25 0"/>
<feBlend mode="normal" in2="BackgroundImageFix" result="effect1_dropShadow"/>
<feBlend mode="normal" in="SourceGraphic" in2="effect1_dropShadow" result="shape"/>
</filter>
</defs>
</svg>
