<svg width="28" height="30" viewBox="0 0 28 30" fill="none" xmlns="http://www.w3.org/2000/svg">
<g filter="url(#filter0_d)">
<path d="M23.382 15.0052C23.3208 14.9439 23.2595 14.8827 23.1983 14.8215C22.3719 14.1788 21.1477 14.2094 20.3825 15.0052L19.8315 15.5561L19.25 14.9745C18.4848 14.2094 17.2605 14.1482 16.4342 14.8215L11.2309 11.5159L11.7513 10.9956C12.2716 10.4753 12.4552 9.80194 12.3328 9.12858L18.0869 5.45572L19.8315 7.20033L21.7598 5.27208L22.8617 4.17022L23.382 3.6499C23.9023 3.12958 24.0859 2.45622 23.9635 1.78287C23.9023 1.35437 23.688 0.956473 23.382 0.650402C23.3208 0.589188 23.2595 0.527973 23.1983 0.466759C22.3719 -0.175991 21.1477 -0.145384 20.3825 0.650402L19.8315 1.20133L19.25 0.619795C18.4236 -0.206598 17.0769 -0.206598 16.2505 0.619795C15.4241 1.44619 15.4241 2.7929 16.2505 3.61929L16.9851 4.35387L11.5676 7.78187C10.7412 7.13912 9.51694 7.16972 8.75176 7.96551L8.20083 8.51644L7.61929 7.9349C6.7929 7.10851 5.44619 7.10851 4.61979 7.9349C3.7934 8.7613 3.7934 10.108 4.61979 10.9344L8.20083 14.5154L10.1291 12.5872L15.669 16.107C15.5465 16.7498 15.7608 17.4537 16.2505 17.974L19.8315 21.5551L21.7598 19.6268L22.8617 18.525L23.382 18.0047C23.9023 17.4843 24.0859 16.811 23.9635 16.1376C23.9023 15.7091 23.7187 15.3112 23.382 15.0052Z" fill="white"/>
</g>
<defs>
<filter id="filter0_d" x="0" y="0" width="28" height="29.5551" filterUnits="userSpaceOnUse" color-interpolation-filters="sRGB">
<feFlood flood-opacity="0" result="BackgroundImageFix"/>
<feColorMatrix in="SourceAlpha" type="matrix" values="0 0 0 0 0 0 0 0 0 0 0 0 0 0 0 0 0 0 127 0"/>
<feOffset dy="4"/>
<feGaussianBlur stdDeviation="2"/>
<feColorMatrix type="matrix" values="0 0 0 0 0 0 0 0 0 0 0 0 0 0 0 0 0 0 0.25 0"/>
<feBlend mode="normal" in2="BackgroundImageFix" result="effect1_dropShadow"/>
<feBlend mode="normal" in="SourceGraphic" in2="effect1_dropShadow" result="shape"/>
</filter>
</defs>
</svg>
