<svg width="30" height="30" viewBox="0 0 30 30" fill="none" xmlns="http://www.w3.org/2000/svg">
<g filter="url(#filter0_i)">
<path d="M29.073 20.8839C28.9811 20.7987 28.8893 20.7135 28.7975 20.6283C27.5579 19.7338 25.7215 19.7764 24.5737 20.8839L23.7473 21.6507L22.875 20.8413C21.7272 19.7764 19.8908 19.6912 18.6512 20.6283L10.8464 16.0277L11.6269 15.3035C12.4074 14.5793 12.6828 13.6422 12.4992 12.705L21.1304 7.59318L23.7473 10.0213L26.6397 7.33759L28.2925 5.80405L29.073 5.07987C29.8534 4.3557 30.1289 3.41853 29.9453 2.48136C29.8534 1.88498 29.5321 1.3312 29.073 0.905218C28.9811 0.820021 28.8893 0.734824 28.7975 0.649627C27.5579 -0.244941 25.7215 -0.202343 24.5737 0.905218L23.7473 1.67199L22.875 0.86262C21.6354 -0.28754 19.6154 -0.28754 18.3758 0.86262C17.1362 2.01278 17.1362 3.88711 18.3758 5.03727L19.4776 6.05964L11.3514 10.8307C10.1118 9.9361 8.27541 9.9787 7.12764 11.0863L6.30125 11.853L5.42894 11.0437C4.18935 9.8935 2.16928 9.8935 0.929692 11.0437C-0.309897 12.1938 -0.309897 14.0682 0.929692 15.2183L6.30125 20.2023L9.19362 17.5186L17.5035 22.4175C17.3198 23.312 17.6412 24.2918 18.3758 25.016L23.7473 30L26.6397 27.3163L28.2925 25.7827L29.073 25.0586C29.8534 24.3344 30.1289 23.3972 29.9453 22.4601C29.8534 21.8637 29.578 21.3099 29.073 20.8839Z" fill="#F2E452"/>
</g>
<defs>
<filter id="filter0_i" x="0" y="0" width="30" height="34" filterUnits="userSpaceOnUse" color-interpolation-filters="sRGB">
<feFlood flood-opacity="0" result="BackgroundImageFix"/>
<feBlend mode="normal" in="SourceGraphic" in2="BackgroundImageFix" result="shape"/>
<feColorMatrix in="SourceAlpha" type="matrix" values="0 0 0 0 0 0 0 0 0 0 0 0 0 0 0 0 0 0 127 0" result="hardAlpha"/>
<feOffset dy="4"/>
<feGaussianBlur stdDeviation="2"/>
<feComposite in2="hardAlpha" operator="arithmetic" k2="-1" k3="1"/>
<feColorMatrix type="matrix" values="0 0 0 0 0 0 0 0 0 0 0 0 0 0 0 0 0 0 0.25 0"/>
<feBlend mode="normal" in2="shape" result="effect1_innerShadow"/>
</filter>
</defs>
</svg>
