<svg width="20" height="22" viewBox="0 0 20 22" fill="none" xmlns="http://www.w3.org/2000/svg">
<g filter="url(#filter0_i)">
<path d="M19.382 15.0052C19.3208 14.9439 19.2595 14.8827 19.1983 14.8215C18.3719 14.1788 17.1477 14.2094 16.3825 15.0052L15.8315 15.5561L15.25 14.9745C14.4848 14.2094 13.2605 14.1482 12.4342 14.8215L7.23094 11.5159L7.75126 10.9956C8.27158 10.4753 8.45522 9.80194 8.3328 9.12858L14.0869 5.45572L15.8315 7.20033L17.7598 5.27208L18.8617 4.17022L19.382 3.6499C19.9023 3.12958 20.0859 2.45622 19.9635 1.78287C19.9023 1.35437 19.688 0.956473 19.382 0.650402C19.3208 0.589188 19.2595 0.527973 19.1983 0.466759C18.3719 -0.175991 17.1477 -0.145384 16.3825 0.650402L15.8315 1.20133L15.25 0.619795C14.4236 -0.206598 13.0769 -0.206598 12.2505 0.619795C11.4241 1.44619 11.4241 2.7929 12.2505 3.61929L12.9851 4.35387L7.56762 7.78187C6.74122 7.13912 5.51694 7.16972 4.75176 7.96551L4.20083 8.51644L3.61929 7.9349C2.7929 7.10851 1.44619 7.10851 0.619795 7.9349C-0.206598 8.7613 -0.206598 10.108 0.619795 10.9344L4.20083 14.5154L6.12908 12.5872L11.669 16.107C11.5465 16.7498 11.7608 17.4537 12.2505 17.974L15.8315 21.5551L17.7598 19.6268L18.8617 18.525L19.382 18.0047C19.9023 17.4843 20.0859 16.811 19.9635 16.1376C19.9023 15.7091 19.7187 15.3112 19.382 15.0052Z" fill="#F2E452"/>
</g>
<defs>
<filter id="filter0_i" x="0" y="0" width="20" height="25.5551" filterUnits="userSpaceOnUse" color-interpolation-filters="sRGB">
<feFlood flood-opacity="0" result="BackgroundImageFix"/>
<feBlend mode="normal" in="SourceGraphic" in2="BackgroundImageFix" result="shape"/>
<feColorMatrix in="SourceAlpha" type="matrix" values="0 0 0 0 0 0 0 0 0 0 0 0 0 0 0 0 0 0 127 0" result="hardAlpha"/>
<feOffset dy="4"/>
<feGaussianBlur stdDeviation="2"/>
<feComposite in2="hardAlpha" operator="arithmetic" k2="-1" k3="1"/>
<feColorMatrix type="matrix" values="0 0 0 0 0 0 0 0 0 0 0 0 0 0 0 0 0 0 0.25 0"/>
<feBlend mode="normal" in2="shape" result="effect1_innerShadow"/>
</filter>
</defs>
</svg>
