<svg width="40" height="44" viewBox="0 0 40 44" fill="none" xmlns="http://www.w3.org/2000/svg">
<path d="M20 43.7121C9.13053 43.7121 0.287964 34.8691 0.287964 24C0.287964 13.1305 9.13094 4.28796 20 4.28796C20.4434 4.28796 20.8032 4.6478 20.8032 5.09118C20.8032 5.53455 20.4434 5.89439 20 5.89439C10.0165 5.89439 1.89439 14.0169 1.89439 24C1.89439 33.9831 10.0169 42.1056 20 42.1056C29.9831 42.1056 38.1056 33.9831 38.1056 24C38.1056 23.5566 38.4655 23.1968 38.9088 23.1968C39.3522 23.1968 39.7121 23.5566 39.7121 24C39.7121 34.8691 30.8691 43.7121 20 43.7121Z" fill="#0F5353"/>
<path d="M32.6193 4.16146L30.5442 4.16427L26.745 0.491578C25.8964 -0.328101 25.116 0.799208 25.6723 1.60122L27.596 4.16828L23.9293 4.1731L23.4245 3.65744C22.4229 2.61849 22.3903 3.72451 22.4096 4.55061C22.4096 4.81527 22.4096 5.07993 22.4096 5.34419C22.4096 6.18957 23.3068 6.20282 23.7586 6.21527L27.5703 6.21889L25.6723 8.75142C25.116 9.55383 25.8968 10.6807 26.745 9.86106L30.5096 6.2217L32.7811 6.22411C35.5719 6.22411 34.0723 4.16146 32.6193 4.16146Z" fill="#0F5353"/>
<path d="M27.0048 18.1297C26.3606 17.4787 25.3678 16.9101 23.9606 16.9241C21.5256 17.0984 20.7232 18.6269 20.1313 19.8771C19.5457 18.602 18.5682 16.898 16.0317 16.9241C13.9554 17.0571 12.714 18.3233 12.2638 19.9085C11.7152 21.841 12.4204 23.9711 13.2891 25.1836C14.1859 26.4346 15.4895 27.4743 16.6349 28.4699C17.8505 29.5261 18.6184 29.9301 20.1618 31.204C21.6927 29.796 24.0987 28.2928 26.0995 26.2093C27.0072 25.2253 27.7991 24.2024 28.0582 22.5012C28.3345 20.7004 28.0192 19.1542 27.0048 18.1297Z" fill="#0F5353"/>
</svg>
